<svg width="18" height="19" viewBox="0 0 18 19" fill="none" xmlns="http://www.w3.org/2000/svg">
<path d="M9 0.292801C4.032 0.292801 0 4.3248 0 9.2928C0 14.2608 4.032 18.2928 9 18.2928C13.968 18.2928 18 14.2608 18 9.2928C18 4.3248 13.968 0.292801 9 0.292801ZM9 2.9928C10.494 2.9928 11.7 4.1988 11.7 5.6928C11.7 7.1868 10.494 8.3928 9 8.3928C7.506 8.3928 6.3 7.1868 6.3 5.6928C6.3 4.1988 7.506 2.9928 9 2.9928ZM9 15.7728C6.75 15.7728 4.761 14.6208 3.6 12.8748C3.627 11.0838 7.2 10.1028 9 10.1028C10.791 10.1028 14.373 11.0838 14.4 12.8748C13.239 14.6208 11.25 15.7728 9 15.7728Z" fill="white"/>
</svg>
