<svg width="18" height="19" viewBox="0 0 18 19" fill="none" xmlns="http://www.w3.org/2000/svg">
<path d="M16.2364 12.6928L13.6912 12.4022C13.08 12.332 12.4788 12.5425 12.0479 12.9733L10.2042 14.817C7.3685 13.3741 5.04383 11.0595 3.60092 8.21375L5.45465 6.36002C5.88552 5.92915 6.09594 5.32794 6.0258 4.71671L5.73522 2.19163C5.61497 1.17959 4.76326 0.41806 3.7412 0.41806H2.00771C0.875436 0.41806 -0.0664603 1.35996 0.00368089 2.49224C0.53475 11.0495 7.37853 17.8832 15.9257 18.4143C17.058 18.4844 17.9999 17.5425 17.9999 16.4102V14.6768C18.0099 13.6647 17.2484 12.813 16.2364 12.6928Z" fill="white"/>
</svg>
