<svg width="18" height="16" viewBox="0 0 18 16" fill="none" xmlns="http://www.w3.org/2000/svg">
<path d="M2.50317 8.81606V11.2353C2.50317 11.8638 2.84754 12.4492 3.39854 12.7505L7.70322 15.1009C8.21978 15.385 8.83965 15.385 9.35621 15.1009L13.6609 12.7505C14.2119 12.4492 14.5563 11.8638 14.5563 11.2353V8.81606L9.35621 11.6571C8.83965 11.9413 8.21978 11.9413 7.70322 11.6571L2.50317 8.81606ZM7.70322 0.499425L0.445534 4.45973C-0.148511 4.78688 -0.148511 5.64782 0.445534 5.97497L7.70322 9.93527C8.21978 10.2194 8.83965 10.2194 9.35621 9.93527L16.2781 6.15577V11.2439C16.2781 11.7174 16.6656 12.1048 17.1391 12.1048C17.6126 12.1048 18 11.7174 18 11.2439V5.7253C18 5.40676 17.8278 5.12265 17.5523 4.96768L9.35621 0.499425C8.83965 0.223926 8.21978 0.223926 7.70322 0.499425Z" fill="white"/>
</svg>
