<svg width="18" height="21" viewBox="0 0 18 21" fill="none" xmlns="http://www.w3.org/2000/svg">
<path d="M14.8162 2.88448C14.7362 2.88448 14.6562 2.86447 14.5861 2.82446C12.6658 1.83426 11.0054 1.41418 9.015 1.41418C7.0346 1.41418 5.15421 1.88427 3.44386 2.82446C3.20381 2.95449 2.90375 2.86447 2.76372 2.62442C2.6337 2.38437 2.72372 2.07431 2.96377 1.94428C4.82415 0.934077 6.86456 0.413971 9.015 0.413971C11.1454 0.413971 13.0058 0.884067 15.0462 1.93428C15.2963 2.06431 15.3863 2.36437 15.2563 2.60442C15.1663 2.78446 14.9962 2.88448 14.8162 2.88448ZM0.503262 8.13555C0.403241 8.13555 0.303221 8.10554 0.213202 8.04553C-0.0168446 7.8855 -0.0668549 7.57544 0.0931778 7.34539C1.08338 5.9451 2.34364 4.84488 3.84395 4.07472C6.98459 2.45439 11.0054 2.44439 14.1561 4.06472C15.6564 4.83487 16.9166 5.9251 17.9068 7.31538C18.0669 7.53543 18.0168 7.85549 17.7868 8.01553C17.5568 8.17556 17.2467 8.12555 17.0867 7.8955C16.1865 6.63524 15.0462 5.64504 13.696 4.9549C10.8254 3.4846 7.15462 3.4846 4.29404 4.9649C2.93376 5.66504 1.79353 6.66525 0.893342 7.92551C0.813325 8.06554 0.663295 8.13555 0.503262 8.13555ZM6.75454 20.208C6.62451 20.208 6.49449 20.158 6.40447 20.058C5.53429 19.1878 5.0642 18.6277 4.39406 17.4174C3.70392 16.1872 3.34384 14.6869 3.34384 13.0766C3.34384 10.106 5.88436 7.68546 9.005 7.68546C12.1256 7.68546 14.6662 10.106 14.6662 13.0766C14.6662 13.3566 14.4461 13.5767 14.1661 13.5767C13.886 13.5767 13.666 13.3566 13.666 13.0766C13.666 10.6561 11.5755 8.68566 9.005 8.68566C6.43448 8.68566 4.34405 10.6561 4.34405 13.0766C4.34405 14.5169 4.66411 15.8471 5.27424 16.9273C5.91437 18.0776 6.35446 18.5677 7.12462 19.3478C7.31466 19.5479 7.31466 19.8579 7.12462 20.058C7.01459 20.158 6.88457 20.208 6.75454 20.208ZM13.926 18.3576C12.7358 18.3576 11.6855 18.0576 10.8254 17.4675C9.33507 16.4572 8.44489 14.8169 8.44489 13.0766C8.44489 12.7965 8.66493 12.5765 8.94499 12.5765C9.22505 12.5765 9.44509 12.7965 9.44509 13.0766C9.44509 14.4868 10.1652 15.8171 11.3855 16.6373C12.0956 17.1174 12.9258 17.3474 13.926 17.3474C14.1661 17.3474 14.5661 17.3174 14.9662 17.2474C15.2363 17.1974 15.4963 17.3774 15.5463 17.6575C15.5964 17.9276 15.4163 18.1876 15.1363 18.2376C14.5661 18.3476 14.066 18.3576 13.926 18.3576ZM11.9156 20.4181C11.8756 20.4181 11.8256 20.4081 11.7856 20.3981C10.1952 19.958 9.15503 19.3678 8.06481 18.2976C6.66452 16.9073 5.89437 15.057 5.89437 13.0766C5.89437 11.4562 7.27465 10.136 8.975 10.136C10.6753 10.136 12.0556 11.4562 12.0556 13.0766C12.0556 14.1468 12.9858 15.017 14.1361 15.017C15.2863 15.017 16.2165 14.1468 16.2165 13.0766C16.2165 9.30579 12.9658 6.24516 8.96499 6.24516C6.12441 6.24516 3.52388 7.82549 2.35364 10.276C1.96356 11.0862 1.76352 12.0363 1.76352 13.0766C1.76352 13.8567 1.83353 15.087 2.43366 16.6873C2.53368 16.9474 2.40365 17.2374 2.1436 17.3274C1.88354 17.4274 1.59348 17.2874 1.50347 17.0374C1.01337 15.7271 0.773317 14.4268 0.773317 13.0766C0.773317 11.8763 1.00336 10.7861 1.45346 9.8359C2.78373 7.04533 5.73433 5.23496 8.96499 5.23496C13.5159 5.23496 17.2167 8.74567 17.2167 13.0666C17.2167 14.6869 15.8364 16.0072 14.1361 16.0072C12.4357 16.0072 11.0554 14.6869 11.0554 13.0666C11.0554 11.9963 10.1252 11.1262 8.975 11.1262C7.82476 11.1262 6.89457 11.9963 6.89457 13.0666C6.89457 14.7769 7.5547 16.3772 8.76495 17.5775C9.71515 18.5177 10.6253 19.0378 12.0356 19.4279C12.3057 19.4979 12.4557 19.7779 12.3857 20.038C12.3357 20.268 12.1256 20.4181 11.9156 20.4181Z" fill="white"/>
</svg>
