<svg width="32" height="33" viewBox="0 0 32 33" fill="none" xmlns="http://www.w3.org/2000/svg">
<path d="M16 8.5C17.48 8.5 18.6667 7.3 18.6667 5.83333C18.6667 5.32667 18.5333 4.86 18.28 4.46L16 0.5L13.72 4.46C13.4667 4.86 13.3333 5.32667 13.3333 5.83333C13.3333 7.3 14.5333 8.5 16 8.5ZM22.1333 21.82L20.7067 20.3933L19.2667 21.82C17.5333 23.5533 14.4933 23.5667 12.7467 21.82L11.32 20.3933L9.86667 21.82C9 22.6867 7.84 23.1667 6.61333 23.1667C5.64 23.1667 4.74667 22.86 4 22.3533V28.5C4 29.2333 4.6 29.8333 5.33333 29.8333H26.6667C27.4 29.8333 28 29.2333 28 28.5V22.3533C27.2533 22.86 26.36 23.1667 25.3867 23.1667C24.16 23.1667 23 22.6867 22.1333 21.82ZM24 12.5H17.3333V9.83333H14.6667V12.5H8C5.78667 12.5 4 14.2867 4 16.5V18.5533C4 19.9933 5.17333 21.1667 6.61333 21.1667C7.30667 21.1667 7.97333 20.9 8.45333 20.4067L11.3067 17.5667L14.1467 20.4067C15.1333 21.3933 16.8533 21.3933 17.84 20.4067L20.6933 17.5667L23.5333 20.4067C24.0267 20.9 24.68 21.1667 25.3733 21.1667C26.8133 21.1667 27.9867 19.9933 27.9867 18.5533V16.5C28 14.2867 26.2133 12.5 24 12.5Z" fill="#FDCB6E"/>
</svg>
