<svg width="32" height="33" viewBox="0 0 32 33" fill="none" xmlns="http://www.w3.org/2000/svg">
<path d="M16.6667 3.16663C11.1381 3.16663 6.66666 7.63805 6.66666 13.1666C6.66666 15.6523 7.38094 17.9809 8.68094 20.0809C10.0381 22.2809 11.8238 24.1666 13.1952 26.3666C13.8667 27.4381 14.3524 28.4381 14.8667 29.5952C15.2381 30.3809 15.5381 31.7381 16.6667 31.7381C17.7952 31.7381 18.0952 30.3809 18.4524 29.5952C18.9809 28.4381 19.4524 27.4381 20.1238 26.3666C21.4952 24.1809 23.2809 22.2952 24.6381 20.0809C25.9524 17.9809 26.6667 15.6523 26.6667 13.1666C26.6667 7.63805 22.1952 3.16663 16.6667 3.16663ZM16.6667 17.0952C14.6952 17.0952 13.0952 15.4952 13.0952 13.5238C13.0952 11.5523 14.6952 9.95234 16.6667 9.95234C18.6381 9.95234 20.2381 11.5523 20.2381 13.5238C20.2381 15.4952 18.6381 17.0952 16.6667 17.0952Z" fill="#FDCB6E"/>
</svg>
